<svg width="64" height="64" viewBox="0 0 64 64" fill="none" xmlns="http://www.w3.org/2000/svg">
<path d="M52.2009 4L11.2516 4.04669C5.8213 4.83821 1.73211 9.17993 1 14.5869V49.0151C1.24191 49.5498 1.24828 50.1907 1.40531 50.77C2.39843 54.4348 5.12314 57.3335 8.60331 58.7744L12.0283 59.5978H51.9717L55.3967 58.7744C58.8917 57.3484 61.5846 54.4284 62.5947 50.77C62.756 50.1907 62.756 49.5498 63 49.0151V14.5869C62.4716 9.15446 57.6503 4.38409 52.2009 4ZM12.2469 8.76825L52.0438 8.77674C54.6603 9.17781 57.0625 10.9582 57.784 13.545H6.216C6.93326 10.9327 9.54975 8.9656 12.2469 8.76825ZM58.2317 48.4931C58.2317 51.4448 54.5309 54.8189 51.5791 54.8083L12.841 54.8338C9.73224 55.0141 5.77037 51.6104 5.77037 48.4931V18.3132H58.2317V48.4931Z" fill="#007BFF"/>
<path d="M24.4805 36.7878C26.1124 38.5215 26.1378 40.8813 24.4805 42.6129L15.7058 49.7854C13.2973 50.8846 11.1668 48.0008 12.9748 45.936L20.3807 39.8415L20.2767 39.4659L12.9748 33.4647C11.0713 31.2875 13.4055 28.0768 16.3382 30.027C19.1054 31.8647 21.6985 34.8631 24.4805 36.7878Z" fill="white"/>
<path d="M40.2559 50.0422C36.7099 50.4602 32.4319 49.7748 28.8095 50.0443C26.7999 49.8194 25.8344 47.3811 27.2816 45.936C27.5533 45.6644 28.2578 45.3333 28.644 45.2866C32.33 45.6559 36.9858 44.7965 40.5572 45.3015C43.1376 45.6686 43.1588 49.6984 40.2559 50.0422Z" fill="white"/>
<path d="M24.4805 42.6129L15.7058 49.7854C13.2973 50.8846 11.1668 48.0008 12.9748 45.936L20.3807 39.8415L20.2767 39.4659L12.9748 33.4647C11.0713 31.2875 13.4055 28.0768 16.3382 30.027C19.1054 31.8647 21.6985 34.8631 24.4805 36.7878C26.1124 38.5215 26.1378 40.8813 24.4805 42.6129Z" fill="#8CC63F"/>
<path d="M40.2559 50.0422C36.7099 50.4602 32.4319 49.7748 28.8095 50.0443C26.7999 49.8193 25.8344 47.3811 27.2816 45.936C27.5533 45.6644 28.2578 45.3333 28.644 45.2866C32.33 45.6559 36.9858 44.7964 40.5572 45.3015C43.1376 45.6686 43.1588 49.6984 40.2559 50.0422Z" fill="#8CC63F"/>
</svg>
