<?xml version="1.0" encoding="UTF-8" standalone="no"?>
<!DOCTYPE svg PUBLIC "-//W3C//DTD SVG 1.1//EN" "http://www.w3.org/Graphics/SVG/1.1/DTD/svg11.dtd">
<svg width="100%" height="100%" viewBox="0 0 256 144" version="1.1" xmlns="http://www.w3.org/2000/svg" xmlns:xlink="http://www.w3.org/1999/xlink" xml:space="preserve" xmlns:serif="http://www.serif.com/" style="fill-rule:evenodd;clip-rule:evenodd;stroke-linejoin:round;stroke-miterlimit:2;">
    <g transform="matrix(1,0,0,1,-7768,-3093)">
        <g>
            <g transform="matrix(0.752941,0,0,1.371429,1919.152941,-1148.828571)">
                <path d="M8108,3119.25L8108,3171.75C8108,3186.238 8086.576,3198 8060.188,3198L7815.812,3198C7789.424,3198 7768,3186.238 7768,3171.75L7768,3119.25C7768,3104.762 7789.424,3093 7815.812,3093L8060.188,3093C8086.576,3093 8108,3104.762 8108,3119.25Z" style="fill:white;"/>
            </g>
            <g transform="matrix(0.653338,0,0,0.653338,2576.589802,971.561254)">
                <g transform="matrix(0.870435,0,0,0.870435,8228.545533,3302.130177)">
                    <path d="M0,126.714C0,137.916 -14.045,150.721 -25.248,150.681L-172.263,150.785C-184.061,151.47 -199.097,138.552 -199.097,126.714L-199.097,12.178L0,12.178L0,126.714ZM-23.484,-24.015C-20.381,-23.536 -17.357,-22.548 -14.583,-21.117C-14.028,-20.83 -13.483,-20.526 -12.949,-20.205C-7.614,-16.991 -3.411,-12.054 -1.699,-5.918L-197.406,-5.918C-196.723,-8.397 -195.591,-10.722 -194.117,-12.828C-192.643,-14.934 -190.827,-16.82 -188.777,-18.419C-185.071,-21.31 -180.599,-23.251 -175.996,-23.878C-175.504,-23.945 -175.012,-24.011 -174.518,-24.047M-22.888,-42.143L-178.295,-41.966C-198.904,-38.962 -214.423,-22.484 -217.201,-1.964L-217.201,128.695C-216.283,130.724 -216.259,133.156 -215.663,135.363C-211.886,149.263 -201.553,160.264 -188.346,165.733L-175.347,168.857L-23.758,168.857L-10.76,165.733C2.504,160.32 12.724,149.239 16.558,135.363C17.17,133.156 17.17,130.724 18.096,128.695L18.096,-1.964C16.091,-22.581 -2.207,-40.685 -22.888,-42.143" style="fill:rgb(0,123,255);fill-rule:nonzero;"/>
                </g>
                <g transform="matrix(0.870435,0,0,0.870435,8079.043415,3361.334881)">
                    <path d="M0,48.994L28.107,25.867L27.713,24.438L0,1.661C-7.226,-6.598 1.632,-18.781 12.763,-11.386C23.271,-4.405 33.104,6.97 43.666,14.273C49.855,20.857 49.952,29.808 43.666,36.383L10.367,63.605C1.227,67.775 -6.858,56.832 0,48.994" style="fill:rgb(140,198,63);fill-rule:nonzero;"/>
                </g>
                <g transform="matrix(0.870435,0,0,0.870435,8126.303666,3415.163084)">
                    <path d="M0,-12.849C1.031,-13.88 3.703,-15.134 5.17,-15.315C19.165,-13.909 36.833,-17.175 50.383,-15.253C60.177,-13.864 60.256,1.431 49.238,2.735C35.783,4.326 19.55,1.718 5.798,2.748C-1.826,1.889 -5.489,-7.361 0,-12.849" style="fill:rgb(140,198,63);fill-rule:nonzero;"/>
                </g>
            </g>
        </g>
    </g>
</svg>
