<?xml version="1.0" encoding="UTF-8"?>
<svg id="Layer_2" data-name="Layer 2" xmlns="http://www.w3.org/2000/svg" viewBox="0 0 235.3 211">
  <defs>
    <style>
      .cls-1 {
        fill: #007bff;
      }

      .cls-2 {
        fill: #8cc63f;
      }
    </style>
  </defs>
  <g id="Layer_3" data-name="Layer 3">
    <g id="iWLQ3k.tif">
      <g>
        <path class="cls-1" d="M194.31,0L38.91.18C18.3,3.18,2.78,19.66,0,40.18v130.66c.92,2.03.94,4.46,1.54,6.67,3.78,13.9,14.11,24.9,27.32,30.37l13,3.12h151.59l13-3.12c13.26-5.41,23.48-16.49,27.32-30.37.61-2.21.61-4.64,1.54-6.67V40.18c-2.01-20.62-20.3-38.72-40.98-40.18ZM193.72,18.13c3.1.48,6.13,1.47,8.9,2.9.55.29,1.1.59,1.63.91,5.34,3.21,9.54,8.15,11.25,14.29H19.8c.68-2.48,1.81-4.8,3.29-6.91,1.47-2.11,3.29-3.99,5.34-5.59,3.71-2.89,8.18-4.83,12.78-5.46.49-.07.98-.13,1.48-.17M217.2,168.86c0,11.2-14.05,24.01-25.25,23.97l-147.02.1c-11.8.68-26.83-12.23-26.83-24.07V54.32h199.1v114.54Z"/>
        <g>
          <path class="cls-2" d="M45.45,159.15l28.11-23.13-.39-1.43-27.71-22.78c-7.23-8.26,1.63-20.44,12.76-13.05,10.51,6.98,20.34,18.36,30.9,25.66,6.19,6.58,6.29,15.54,0,22.11l-33.3,27.22c-9.14,4.17-17.22-6.77-10.37-14.61Z"/>
          <path class="cls-2" d="M99.74,159.15c1.03-1.03,3.7-2.28,5.17-2.47,13.99,1.41,31.66-1.86,45.21.06,9.79,1.39,9.87,16.68-1.14,17.99-13.46,1.59-29.69-1.02-43.44.01-7.62-.86-11.29-10.11-5.8-15.6Z"/>
        </g>
      </g>
    </g>
  </g>
</svg>